<svg width="25" height="24" viewBox="0 0 25 24" fill="none" xmlns="http://www.w3.org/2000/svg">
<path fill-rule="evenodd" clip-rule="evenodd" d="M20.5087 8.29925L14.5087 3.63225C13.4257 2.78925 11.9087 2.78925 10.8247 3.63225L4.82466 8.29925C4.09366 8.86725 3.66666 9.74125 3.66666 10.6673V18.0002C3.66666 19.6572 5.00966 21.0002 6.66666 21.0002H18.6667C20.3237 21.0002 21.6667 19.6572 21.6667 18.0002V10.6673C21.6667 9.74125 21.2397 8.86725 20.5087 8.29925Z" fill="#3C4852"/>
<path d="M17.197 14.7686C17.4899 14.4757 17.4899 14.0008 17.197 13.708C16.9041 13.4151 16.4292 13.4151 16.1363 13.708L17.197 14.7686ZM9.19723 13.7082C8.90447 13.4152 8.42959 13.415 8.13657 13.7077C7.84354 14.0005 7.84333 14.4753 8.13609 14.7684L9.19723 13.7082ZM16.1363 13.708C14.2191 15.6252 11.1121 15.6248 9.19723 13.7082L8.13609 14.7684C10.6372 17.2717 14.6942 17.2714 17.197 14.7686L16.1363 13.708Z" fill="white"/>
</svg>
