<svg width="21" height="20" viewBox="0 0 21 20" fill="none" xmlns="http://www.w3.org/2000/svg">
<path d="M18.5085 6.29925L18.048 6.89125L18.0483 6.89148L18.5085 6.29925ZM12.5085 1.63225L12.0478 2.22409L12.048 2.22425L12.5085 1.63225ZM8.8245 1.63225L8.36409 1.04021L8.36403 1.04025L8.8245 1.63225ZM2.8245 6.29925L3.28468 6.89148L3.28498 6.89125L2.8245 6.29925ZM15.1968 12.7686C15.4897 12.4757 15.4897 12.0008 15.1968 11.7079C14.9039 11.415 14.4291 11.415 14.1362 11.7079L15.1968 12.7686ZM7.19707 11.7082C6.90431 11.4151 6.42944 11.4149 6.13641 11.7077C5.84339 12.0004 5.84317 12.4753 6.13593 12.7683L7.19707 11.7082ZM18.969 5.70725L12.969 1.04025L12.048 2.22425L18.048 6.89125L18.969 5.70725ZM12.9692 1.04041C11.6151 -0.013568 9.71878 -0.0133048 8.36409 1.04021L9.28492 2.22429C10.0982 1.5918 11.2359 1.59207 12.0478 2.22409L12.9692 1.04041ZM8.36403 1.04025L2.36403 5.70725L3.28498 6.89125L9.28498 2.22425L8.36403 1.04025ZM2.36433 5.70702C1.45013 6.41737 0.916504 7.51012 0.916504 8.66725H2.4165C2.4165 7.97238 2.73688 7.31713 3.28468 6.89148L2.36433 5.70702ZM0.916504 8.66725V16.0002H2.4165V8.66725H0.916504ZM0.916504 16.0002C0.916504 18.0715 2.59529 19.7502 4.6665 19.7502V18.2502C3.42372 18.2502 2.4165 17.243 2.4165 16.0002H0.916504ZM4.6665 19.7502H16.6665V18.2502H4.6665V19.7502ZM16.6665 19.7502C18.7377 19.7502 20.4165 18.0715 20.4165 16.0002H18.9165C18.9165 17.243 17.9093 18.2502 16.6665 18.2502V19.7502ZM20.4165 16.0002V8.66725H18.9165V16.0002H20.4165ZM20.4165 8.66725C20.4165 7.51012 19.8829 6.41737 18.9687 5.70702L18.0483 6.89148C18.5961 7.31713 18.9165 7.97238 18.9165 8.66725H20.4165ZM14.1362 11.7079C12.2189 13.6252 9.11199 13.6248 7.19707 11.7082L6.13593 12.7683C8.63701 15.2717 12.6941 15.2713 15.1968 12.7686L14.1362 11.7079Z" fill="#7A8B94"/>
</svg>
