<svg width="24" height="24" viewBox="0 0 24 24" fill="none" xmlns="http://www.w3.org/2000/svg">
<path d="M15.2531 2C16.4114 2 17.3653 2.87524 17.4894 4.00044L18.7572 4C19.6753 4 20.4284 4.70711 20.5014 5.60647L20.5072 5.75V8.75C20.5072 10.483 19.1507 11.8992 17.4416 11.9949L17.2313 12.0007C16.5635 14.0909 14.7329 15.6615 12.5002 15.9517L12.4996 17.5H14.2531C15.9861 17.5 17.4023 18.8565 17.498 20.5656L17.5031 20.75V21.25C17.5031 21.6297 17.2209 21.9435 16.8549 21.9932L16.7531 22H6.75007C6.37038 22 6.05658 21.7178 6.00692 21.3518L6.00007 21.25V20.75C6.00007 19.017 7.35653 17.6008 9.06565 17.5051L9.25007 17.5H10.9996L10.9999 15.9513C8.76866 15.6601 6.93939 14.09 6.27186 12.0007L6.24561 12C4.45068 12 2.99561 10.5449 2.99561 8.75V5.75C2.99561 4.7835 3.77911 4 4.74561 4L6.01376 4.00044C6.13792 2.87524 7.09178 2 8.25007 2H15.2531ZM18.7572 5.5H17.5031V10.4829C18.3031 10.3703 18.9295 9.71683 19.0005 8.90415L19.0072 8.75V5.75C19.0072 5.63165 18.9249 5.53251 18.8145 5.5066L18.7572 5.5ZM6.00007 5.5H4.74561C4.60753 5.5 4.49561 5.61193 4.49561 5.75V8.75C4.49561 9.63316 5.14982 10.3635 6.00007 10.4829V5.5Z" fill="#3C4852"/>
</svg>
